<svg xmlns="http://www.w3.org/2000/svg" xmlns:xlink="http://www.w3.org/1999/xlink" viewBox="0 0 81.1999524647826 95.481" height="95.481" width="81.1999524647826" data-background-color="#ffffff" preserveAspectRatio="xMidYMid meet" id="tight-bounds"><g><svg viewBox="0 0 81.1999524647826 95.481" height="95.481" width="81.1999524647826"><g><svg viewBox="0 0 81.1999524647826 95.481" height="95.481" width="81.1999524647826"><g id="textblocktransform"><svg viewBox="0 0 81.1999524647826 95.481" height="95.481" width="81.1999524647826" id="textblock"><g><svg viewBox="0 0 81.1999524647826 95.481" height="95.481" width="81.1999524647826"><g><svg viewBox="0 0 81.1999524647826 95.481" height="95.481" width="81.1999524647826"><g><svg xmlns="http://www.w3.org/2000/svg" xmlns:xlink="http://www.w3.org/1999/xlink" version="1.1" x="0" y="0" viewBox="9.005000114440918 1.7960000038146973 81.99000549316406 96.41000366210938" enable-background="new 0 0 100 100" xml:space="preserve" height="95.481" width="81.1999524647826" class="icon-icon-0" data-fill-palette-color="accent" id="icon-0"><path d="M38.215 66.776C38.215 67.047 37.687 67.526 36.657 67.998 35.128 67.297 32.479 66.6 28.777 66.6 25.079 66.6 22.431 67.297 20.902 67.998 19.873 67.522 19.348 67.047 19.348 66.776 19.348 66.108 22.591 64.161 28.777 64.161 34.968 64.161 38.215 66.108 38.215 66.776M44.559 21.02H12.445A16 16 0 0 0 12.179 23.95C12.179 32.966 19.486 40.273 28.502 40.273S44.825 32.966 44.825 23.95C44.825 22.951 44.737 21.969 44.559 21.02M44.824 15.682V7.863A2.217 2.217 0 0 0 42.606 5.645H15.032A2.22 2.22 0 0 0 12.81 7.863V17.977H42.607C42.742 17.977 42.873 17.964 43.001 17.94H53.742V15.681zM90.995 5.49V13.308L66.881 31.765V47.807H77.589A6.507 6.507 0 0 1 84.096 54.317V57.593A6.504 6.504 0 0 1 77.589 64.1H67.5A1 1 0 0 0 67.487 64.243C67.487 64.334 67.5 64.424 67.52 64.526L67.524 64.608C67.925 67.032 68.057 68.683 68.094 69.642 68.192 71.958 67.906 74.025 67.79 74.513 67.745 74.718 67.561 75.422 67.212 75.939 67.117 76.079 67.027 76.186 66.925 76.276A2.28 2.28 0 0 1 65.629 76.833 7 7 0 0 1 64.949 76.825 2.24 2.24 0 0 1 63.67 76.227 2 2 0 0 1 63.387 75.886C63.055 75.353 62.9 74.653 62.858 74.439 62.756 73.947 62.539 71.873 62.695 69.569 62.768 68.61 62.949 66.962 63.417 64.547L63.429 64.461C63.453 64.355 63.47 64.265 63.47 64.17 63.47 64.149 63.47 64.124 63.466 64.101H47.686V98.206H9.005V60.004C9.005 53.272 14.466 47.811 21.198 47.811H34.686C34.744 47.807 34.797 47.807 34.854 47.807H64.13V30.408L88.244 11.947V8.241H81.919V11.93H51.38V1.796H81.919V5.49zM39.72 66.776C39.72 64.501 34.821 62.656 28.778 62.656 22.739 62.656 17.844 64.501 17.844 66.776 17.844 67.571 18.438 68.313 19.475 68.945 21.402 70.121 24.85 70.904 28.777 70.904 32.713 70.904 36.156 70.121 38.088 68.945 39.122 68.313 39.72 67.571 39.72 66.776M37.63 70.847V86.234C37.63 87.142 34.506 88.916 28.779 88.916S19.928 87.143 19.928 86.234V84.25A8.3 8.3 0 0 1 17.821 84.106V86.234C17.821 89.379 23.334 91.022 28.778 91.022 34.225 91.022 39.736 89.378 39.736 86.234V69.597C39.166 70.072 38.452 70.49 37.63 70.847M17.823 70.015V81.435C17.889 81.48 17.964 81.522 18.039 81.564 18.138 81.618 18.235 81.664 18.343 81.703L18.373 81.716C18.706 81.845 19.065 81.907 19.471 81.907A4 4 0 0 0 19.929 81.884V70.847A13 13 0 0 1 19.267 70.534 8 8 0 0 1 17.994 69.733L17.823 69.594zM19.891 83.428C25.72 83.057 32.349 75.63 35.022 72.325 34.573 72.431 34.108 72.526 33.63 72.607 31.126 75.59 25.093 82.116 19.98 82.521A6 6 0 0 1 19.459 82.543 5 5 0 0 1 17.614 82.209 4 4 0 0 1 17.032 81.944C15.831 81.291 15.095 80.361 14.782 79.098 13.998 75.927 16.15 71.692 17.215 69.862A5.3 5.3 0 0 1 16.574 69.167C15.565 70.864 13.005 75.664 13.907 79.312 14.28 80.818 15.187 81.972 16.603 82.741 17.039 82.975 17.498 83.154 17.97 83.27A6 6 0 0 0 19.891 83.428" fill="#591af9" data-fill-palette-color="accent"/></svg></g></svg></g></svg></g></svg></g></svg></g></svg></g><defs/></svg>