<?xml version="1.0" encoding="utf-8"?>

<!DOCTYPE svg PUBLIC "-//W3C//DTD SVG 1.1//EN" "http://www.w3.org/Graphics/SVG/1.1/DTD/svg11.dtd">
<!-- Uploaded to: SVG Repo, www.svgrepo.com, Generator: SVG Repo Mixer Tools -->
<svg height="800px" width="800px" version="1.1" id="_x32_" xmlns="http://www.w3.org/2000/svg" xmlns:xlink="http://www.w3.org/1999/xlink" 
	 viewBox="0 0 512 512"  xml:space="preserve">
<style type="text/css">
	.st0{fill:#ffffff;}
</style>
<g>
	<path class="st0" d="M50.448,345.976c-13.915,13.916-13.915,36.484,0,50.4L155.63,501.548c13.914,13.932,36.484,13.932,50.4,0.017
		l77.045-77.054L127.494,268.93L50.448,345.976z M178.932,464.636c-3.121,3.12-8.209,3.137-11.33,0.008l-80.24-80.24
		c-3.129-3.12-3.12-8.21,0-11.338l33.504-33.496l91.57,91.562L178.932,464.636z"/>
	<polygon class="st0" points="437.965,85.493 471.988,75.571 396.416,0 141.566,254.858 275.516,388.809 309.193,378.369 
		294.619,348.841 333.105,334.456 318.514,304.929 357,290.552 342.401,261.042 380.887,246.665 366.288,217.163 404.782,202.786 
		390.174,173.26 428.661,158.891 414.078,129.38 452.548,115.004 	"/>
</g>
</svg>